<?xml version="1.0" standalone="no"?>
<!DOCTYPE svg PUBLIC "-//W3C//DTD SVG 20010904//EN"
 "http://www.w3.org/TR/2001/REC-SVG-20010904/DTD/svg10.dtd">
<svg version="1.0" xmlns="http://www.w3.org/2000/svg"
 width="480.000000pt" height="480.000000pt" viewBox="0 0 480.000000 480.000000"
 preserveAspectRatio="xMidYMid meet">
<metadata>
Created by potrace 1.14, written by Peter Selinger 2001-2017
</metadata>
<g transform="translate(0.000000,480.000000) scale(0.100000,-0.100000)"
fill="#000000" stroke="none">
<path d="M2630 4494 c0 -5 -37 -8 -82 -7 -45 1 -87 -2 -94 -8 -8 -7 -14 -6
-19 1 -3 6 -11 7 -18 3 -6 -4 -39 -7 -72 -8 -34 -1 -67 -5 -73 -9 -7 -4 -12
-1 -12 6 0 10 -2 10 -8 1 -4 -7 -16 -10 -27 -9 -11 2 -24 1 -29 -2 -5 -3 -23
-7 -40 -8 -32 -4 -71 -11 -71 -14 0 -1 -20 -4 -45 -6 -25 -3 -46 -9 -48 -14
-2 -4 -12 -6 -22 -3 -11 3 -20 0 -20 -6 0 -6 -3 -10 -7 -9 -13 3 -158 -45
-161 -53 -2 -4 -10 -5 -18 -2 -9 3 -25 1 -37 -5 -37 -18 -120 -43 -149 -45
-10 -1 -18 -4 -18 -8 0 -4 -14 -11 -32 -14 -18 -4 -39 -11 -48 -15 -23 -12
-64 -27 -73 -28 -4 0 -19 -8 -33 -16 -13 -9 -24 -14 -24 -11 0 3 -10 0 -22 -7
-13 -7 -25 -13 -28 -13 -19 -4 -200 -99 -200 -105 0 -5 -16 -14 -35 -20 -19
-6 -35 -16 -35 -21 0 -5 -7 -9 -15 -9 -8 0 -15 -4 -15 -10 0 -5 -6 -10 -14
-10 -8 0 -28 -13 -44 -30 -20 -20 -32 -26 -35 -17 -3 7 -6 4 -6 -6 -1 -10 -5
-16 -9 -13 -5 3 -15 -6 -22 -19 -7 -13 -16 -22 -20 -20 -4 3 -25 -11 -46 -30
-21 -19 -42 -35 -47 -35 -5 0 -4 -6 2 -14 9 -11 6 -12 -14 -8 -16 3 -25 0 -23
-6 2 -6 -24 -40 -58 -74 -34 -35 -63 -67 -65 -72 -2 -5 -15 -21 -29 -36 -36
-37 -84 -100 -92 -120 -4 -10 -11 -21 -17 -25 -6 -3 -9 -11 -6 -16 4 -5 -1
-12 -9 -15 -9 -3 -16 -12 -16 -18 0 -7 -9 -31 -20 -54 -22 -44 -33 -100 -34
-167 l-1 -39 117 -59 c108 -54 126 -67 230 -170 130 -129 152 -153 236 -262
34 -44 67 -86 73 -92 5 -7 8 -13 5 -13 -3 0 6 -12 20 -27 15 -16 33 -41 41
-57 8 -16 24 -39 35 -50 11 -12 29 -39 40 -61 11 -22 23 -42 27 -45 28 -23 93
-148 90 -173 -5 -39 4 -76 22 -96 19 -21 71 -143 67 -159 -1 -4 4 -25 10 -47
7 -22 12 -45 12 -52 0 -15 -62 -43 -161 -74 -41 -13 -75 -27 -77 -31 -2 -4
-12 -8 -23 -8 -10 0 -19 -5 -19 -12 0 -6 -3 -9 -6 -5 -7 6 -100 -39 -109 -53
-3 -6 -14 -10 -23 -10 -10 0 -24 -9 -32 -20 -8 -11 -19 -20 -25 -20 -13 0 -98
-71 -175 -146 -72 -70 -74 -73 -102 -130 -20 -42 -24 -62 -22 -135 2 -74 6
-92 29 -128 35 -57 218 -234 229 -223 3 3 6 1 6 -5 0 -6 12 -16 27 -22 34 -12
81 -40 107 -63 11 -10 28 -18 37 -18 10 0 21 -5 24 -10 4 -6 11 -8 16 -5 5 4
9 2 9 -4 0 -5 10 -8 21 -6 12 3 27 1 33 -3 6 -4 20 -8 31 -8 11 -1 31 -5 45
-9 14 -4 41 -9 61 -11 81 -9 119 -22 119 -43 0 -21 22 -51 75 -101 78 -73 97
-89 116 -95 11 -4 19 -10 19 -14 0 -8 38 -28 54 -29 5 0 12 -4 15 -9 5 -8 75
-44 91 -48 3 -1 19 -7 35 -14 39 -17 154 -22 157 -7 0 6 2 44 3 85 2 95 14
105 126 106 44 0 79 -2 79 -5 0 -6 53 -12 112 -14 14 -1 25 -3 23 -5 -2 -2 28
-20 68 -40 40 -20 74 -38 77 -41 7 -7 30 -12 77 -15 49 -2 117 19 147 47 11
11 32 26 46 33 14 7 32 23 40 34 8 12 19 21 24 21 5 0 19 12 32 28 13 15 24
24 24 20 0 -4 13 5 28 20 15 15 26 30 24 35 -2 4 1 7 5 7 15 0 209 198 255
262 15 20 33 42 40 50 7 7 32 38 54 68 23 30 52 66 65 80 32 34 119 100 132
100 14 0 99 42 115 57 6 6 21 15 32 18 26 8 171 107 236 160 26 22 88 79 136
126 48 47 89 83 89 80 1 -3 1 -14 0 -23 -3 -27 4 -23 61 36 53 53 72 77 85
106 3 8 21 39 40 68 18 29 33 58 33 65 0 7 4 17 8 23 11 12 60 142 67 179 4
17 9 41 12 55 3 14 7 88 10 165 5 155 -6 219 -54 322 l-27 56 27 19 c16 11 24
25 20 31 -4 7 2 5 12 -3 10 -8 16 -10 12 -3 -4 6 -3 14 3 18 5 3 10 1 10 -5 0
-6 13 -2 28 9 16 11 44 23 63 26 18 3 36 9 39 13 6 9 52 8 67 -1 6 -4 14 -3
18 3 4 7 14 6 28 -2 20 -10 21 -10 9 5 -8 9 -11 20 -8 25 3 5 -49 10 -116 11
-67 1 -126 5 -132 8 -5 3 -6 1 -2 -5 4 -7 2 -12 -4 -12 -6 0 -8 -5 -5 -10 4
-6 3 -10 -2 -9 -4 1 -10 1 -13 0 -3 -1 -24 -4 -46 -5 -23 -2 -46 -6 -52 -10
-14 -8 -52 15 -52 31 0 7 -6 12 -12 11 -7 -2 -11 4 -10 12 2 8 0 12 -3 8 -12
-11 -46 11 -39 25 4 7 4 9 -1 5 -4 -4 -22 0 -39 9 -17 10 -33 18 -36 18 -29 5
-79 29 -75 36 3 4 24 14 45 20 22 7 37 15 35 19 -5 7 9 16 28 18 17 2 38 32
31 44 -4 7 -4 10 1 6 9 -8 45 54 45 78 0 8 4 13 9 10 14 -9 20 31 7 45 -8 9
-8 10 2 5 9 -6 12 1 10 28 -2 33 -3 34 -20 19 -10 -8 -15 -19 -13 -23 5 -8
-24 -24 -36 -22 -4 1 -5 -8 -2 -19 6 -21 -24 -62 -38 -53 -4 2 -6 -5 -4 -16 3
-17 1 -19 -16 -10 -10 6 -19 7 -18 3 1 -4 1 -14 0 -22 -1 -11 -4 -11 -18 0
-11 10 -14 10 -9 2 4 -8 2 -13 -4 -13 -6 0 -8 -5 -4 -12 6 -10 4 -10 -7 -2
-10 7 -27 7 -57 -1 -24 -6 -41 -13 -38 -15 2 -3 -13 -5 -35 -6 -21 -1 -39 3
-39 7 0 5 -5 9 -11 9 -5 0 -8 -4 -4 -9 8 -14 -3 -18 -66 -25 -31 -4 -67 -9
-80 -11 -13 -3 -60 -7 -104 -10 -182 -12 -241 -17 -256 -21 -9 -3 -25 3 -35
13 -12 13 -19 14 -22 5 -2 -7 -8 -10 -12 -7 -9 6 -122 -21 -156 -37 -56 -26
-124 -7 -124 35 0 8 -3 17 -7 21 -5 4 -8 11 -9 14 0 4 -4 14 -7 22 -12 28 -36
143 -31 151 2 4 0 10 -6 14 -5 3 -10 24 -10 45 0 21 -4 41 -8 44 -9 6 -8 469
2 525 3 18 6 51 8 72 1 21 4 39 7 39 4 0 7 12 7 28 2 36 12 121 19 152 3 14 8
41 11 60 3 19 9 39 12 45 3 5 7 16 8 25 2 8 8 35 14 60 7 25 13 50 14 55 1 6
4 15 7 20 5 9 5 36 0 96 0 9 -7 16 -13 16 -7 1 -26 5 -43 11 -16 5 -42 8 -57
8 -15 -1 -30 4 -33 12 -3 7 -10 10 -16 6 -13 -8 -182 -6 -204 2 -8 4 -15 2
-15 -2z m1195 -1541 c-16 -9 -32 -19 -35 -22 -6 -8 -30 -13 -30 -6 0 6 73 44
85 44 6 0 -3 -7 -20 -16z m-175 -122 c-5 -11 -15 -23 -21 -27 -6 -3 -3 5 6 20
20 30 30 35 15 7z m-54 -101 c0 -12 -4 -16 -9 -11 -5 5 -6 14 -3 20 10 15 12
14 12 -9z"/>
</g>
</svg>
